<?xml version="1.0" encoding="iso-8859-1"?>
<!-- Generator: Adobe Illustrator 18.0.0, SVG Export Plug-In . SVG Version: 6.00 Build 0)  -->
<!DOCTYPE svg PUBLIC "-//W3C//DTD SVG 1.1//EN" "http://www.w3.org/Graphics/SVG/1.1/DTD/svg11.dtd">
<svg version="1.1" id="Capa_1" xmlns="http://www.w3.org/2000/svg" xmlns:xlink="http://www.w3.org/1999/xlink" x="0px" y="0px"
	 viewBox="0 0 22.989 16.009" style="enable-background:new 0 0 22.989 16.009;" xml:space="preserve">
<g id="arrow-L">
	<g>
		<path style="fill-rule:evenodd;clip-rule:evenodd;" d="M21.989,7.004H3.393l5.309-5.309c0.388-0.388,0.388-1.017,0-1.404
			c-0.388-0.388-1.017-0.388-1.404,0L0.342,7.247C0.321,7.264,0.295,7.271,0.275,7.291C0.047,7.519-0.03,7.829,0.01,8.127
			c0.005,0.049,0.014,0.091,0.027,0.139C0.073,8.39,0.133,8.505,0.219,8.61c0.026,0.033,0.026,0.077,0.057,0.108
			c0.019,0.019,0.044,0.025,0.064,0.041l6.958,6.959c0.388,0.388,1.017,0.388,1.404,0c0.388-0.388,0.388-1.017,0-1.404L3.393,9.004
			h18.595c0.552,0,1-0.448,1-1C22.989,7.452,22.541,7.004,21.989,7.004z"/>
	</g>
</g>
<g>
</g>
<g>
</g>
<g>
</g>
<g>
</g>
<g>
</g>
<g>
</g>
<g>
</g>
<g>
</g>
<g>
</g>
<g>
</g>
<g>
</g>
<g>
</g>
<g>
</g>
<g>
</g>
<g>
</g>
</svg>
