<?xml version="1.0" encoding="iso-8859-1"?>
<!-- Generator: Adobe Illustrator 18.0.0, SVG Export Plug-In . SVG Version: 6.00 Build 0)  -->
<!DOCTYPE svg PUBLIC "-//W3C//DTD SVG 1.1//EN" "http://www.w3.org/Graphics/SVG/1.1/DTD/svg11.dtd">
<svg version="1.1" id="Capa_1" xmlns="http://www.w3.org/2000/svg" xmlns:xlink="http://www.w3.org/1999/xlink" x="0px" y="0px"
	 viewBox="0 0 22.989 16.009" style="enable-background:new 0 0 22.989 16.009;" xml:space="preserve">
<g id="arrow-R">
	<g>
		<path style="fill-rule:evenodd;clip-rule:evenodd;" d="M22.713,7.291c-0.02-0.02-0.046-0.026-0.066-0.044l-6.956-6.956
			c-0.388-0.388-1.017-0.388-1.404,0c-0.388,0.388-0.388,1.017,0,1.404l5.309,5.309H1c-0.552,0-1,0.448-1,1c0,0.552,0.448,1,1,1
			h18.596l-5.309,5.309c-0.388,0.388-0.388,1.017,0,1.404s1.017,0.388,1.404,0l6.958-6.959c0.02-0.017,0.045-0.023,0.064-0.041
			c0.031-0.031,0.031-0.074,0.057-0.108c0.085-0.105,0.145-0.22,0.181-0.344c0.013-0.048,0.022-0.09,0.027-0.139
			C23.019,7.829,22.942,7.519,22.713,7.291z"/>
	</g>
</g>
<g>
</g>
<g>
</g>
<g>
</g>
<g>
</g>
<g>
</g>
<g>
</g>
<g>
</g>
<g>
</g>
<g>
</g>
<g>
</g>
<g>
</g>
<g>
</g>
<g>
</g>
<g>
</g>
<g>
</g>
</svg>
